<?xml version="1.0" encoding="UTF-8" standalone="no"?>
<svg
   xmlns:dc="http://purl.org/dc/elements/1.1/"
   xmlns:cc="http://creativecommons.org/ns#"
   xmlns:rdf="http://www.w3.org/1999/02/22-rdf-syntax-ns#"
   xmlns:svg="http://www.w3.org/2000/svg"
   xmlns="http://www.w3.org/2000/svg"
   xmlns:sodipodi="http://sodipodi.sourceforge.net/DTD/sodipodi-0.dtd"
   xmlns:inkscape="http://www.inkscape.org/namespaces/inkscape"
   width="210mm"
   height="297mm"
   viewBox="0 0 210 297"
   version="1.1"
   id="svg8"
   inkscape:version="1.0 (4035a4f, 2020-05-01)"
   sodipodi:docname="allDrawings.svg"
   inkscape:export-filename="/Users/visola/git/funducation/frontend/assets/background.png"
   inkscape:export-xdpi="96"
   inkscape:export-ydpi="96">
  <defs
     id="defs2">
    <filter
       y="-0.15"
       height="1.3"
       x="-0.15"
       width="1.3"
       inkscape:menu-tooltip="Aquarelle paper effect which can be used for pictures as for objects"
       inkscape:menu="Textures"
       inkscape:label="Rough Paper"
       style="color-interpolation-filters:sRGB;"
       id="filter925">
      <feTurbulence
         type="fractalNoise"
         baseFrequency="0.04"
         numOctaves="5"
         seed="0"
         result="result4"
         id="feTurbulence911" />
      <feDisplacementMap
         in="SourceGraphic"
         in2="result4"
         yChannelSelector="G"
         xChannelSelector="R"
         scale="10"
         result="result3"
         id="feDisplacementMap913" />
      <feDiffuseLighting
         lighting-color="rgb(233,230,215)"
         diffuseConstant="1"
         surfaceScale="2"
         result="result1"
         in="result4"
         id="feDiffuseLighting917">
        <feDistantLight
           azimuth="235"
           elevation="40"
           id="feDistantLight915" />
      </feDiffuseLighting>
      <feComposite
         operator="in"
         in="result3"
         in2="result1"
         result="result2"
         id="feComposite919" />
      <feComposite
         in2="result1"
         result="result5"
         operator="arithmetic"
         k1="1.7"
         id="feComposite921" />
      <feBlend
         in="result5"
         in2="result3"
         mode="normal"
         id="feBlend923" />
    </filter>
  </defs>
  <sodipodi:namedview
     id="base"
     pagecolor="#ffffff"
     bordercolor="#666666"
     borderopacity="1.0"
     inkscape:pageopacity="0.0"
     inkscape:pageshadow="2"
     inkscape:zoom="3.1242238"
     inkscape:cx="126.13952"
     inkscape:cy="123.02792"
     inkscape:document-units="mm"
     inkscape:current-layer="layer1"
     inkscape:document-rotation="0"
     showgrid="false"
     inkscape:window-width="1680"
     inkscape:window-height="1005"
     inkscape:window-x="0"
     inkscape:window-y="23"
     inkscape:window-maximized="0" />
  <metadata
     id="metadata5">
    <rdf:RDF>
      <cc:Work
         rdf:about="">
        <dc:format>image/svg+xml</dc:format>
        <dc:type
           rdf:resource="http://purl.org/dc/dcmitype/StillImage" />
        <dc:title />
      </cc:Work>
    </rdf:RDF>
  </metadata>
  <g
     inkscape:label="Layer 1"
     inkscape:groupmode="layer"
     id="layer1">
    <g
       inkscape:export-ydpi="378.95001"
       inkscape:export-xdpi="378.95001"
       transform="translate(-9.993149,-26.422563)"
       id="g951">
      <path
         id="path872"
         d="m 28.479088,46.680112 -3.951755,1.070266 0.740954,5.762977 h 2.469847 z"
         style="fill:#ffe6d5;stroke:#ffccaa;stroke-width:0.264583px;stroke-linecap:butt;stroke-linejoin:miter;stroke-opacity:1" />
      <path
         style="fill:#ffe6d5;stroke:#ffccaa;stroke-width:0.264583px;stroke-linecap:butt;stroke-linejoin:miter;stroke-opacity:1"
         d="m 16.630305,46.927097 3.951755,1.070266 -0.740954,5.762977 h -2.469847 z"
         id="path870" />
      <path
         id="path43"
         style="fill:#ffaaaa;stroke:#aa0000;stroke-width:0.465222;stroke-miterlimit:4;stroke-dasharray:none"
         d="m 20.61689,30.952602 a 9.8214234,6.1212859 70.1428 0 0 -1.37976,0.230994 9.8214234,6.1212859 70.1428 0 0 -1.728578,1.222148 9.8214234,6.1212859 45.28635 0 0 -1.845366,1.036113 9.8214234,6.1212859 45.28635 0 0 -1.252119,3.574976 9.8214234,6.1212859 0 0 0 -1.659329,3.404442 9.8214234,6.1212859 0 0 0 0.500226,1.928566 6.1212859,9.8214234 66.618738 0 0 0.305925,1.96887 6.1212859,9.8214234 66.618738 0 0 2.477886,2.310972 6.1212859,9.8214234 26.33609 0 0 2.180228,2.593639 6.1212859,9.8214234 26.33609 0 0 3.859712,-0.0047 9.8214234,6.1212859 70.1428 0 0 3.833358,0.439767 9.8214234,6.1212859 70.1428 0 0 1.72806,-1.221113 9.8214234,6.1212859 45.28635 0 0 1.845884,-1.03663 9.8214234,6.1212859 45.28635 0 0 1.252119,-3.574976 9.8214234,6.1212859 0 0 0 1.659329,-3.404444 9.8214234,6.1212859 0 0 0 -0.500226,-1.928563 6.1212859,9.8214234 66.618738 0 0 -0.306443,-1.968871 6.1212859,9.8214234 66.618738 0 0 -2.477368,-2.310971 6.1212859,9.8214234 26.33609 0 0 -2.180228,-2.593639 6.1212859,9.8214234 26.33609 0 0 -3.859196,0.0041 9.8214234,6.1212859 70.1428 0 0 -2.454114,-0.670761 z" />
      <path
         id="path868"
         style="fill:#f4e3d7;stroke:#ffccaa;stroke-width:0.432752;stroke-miterlimit:4;stroke-dasharray:none"
         d="m 22.628243,34.628521 a 3.5263769,5.9757079 0 0 0 -1.65778,0.701765 5.9757079,3.5263769 55.103735 0 0 -1.761133,0.373105 5.9757079,3.5263769 55.103735 0 0 -0.849044,1.152901 5.9757079,3.5263769 27.47404 0 0 -1.034045,0.991155 5.9757079,3.5263769 27.47404 0 0 -0.161747,1.714106 3.5263769,5.9757079 84.137676 0 0 -0.480591,1.65313 3.5263769,5.9757079 84.137676 0 0 1.538924,2.064472 3.5263769,5.9757079 33.336369 0 0 1.121379,2.31769 3.5263769,5.9757079 33.336369 0 0 1.688269,0.336412 3.5263769,5.9757079 0 0 0 1.595768,0.646991 3.5263769,5.9757079 0 0 0 1.657263,-0.701249 5.9757079,3.5263769 55.103735 0 0 1.761133,-0.373105 5.9757079,3.5263769 55.103735 0 0 0.84956,-1.153419 5.9757079,3.5263769 27.47404 0 0 1.033529,-0.991153 5.9757079,3.5263769 27.47404 0 0 0.162781,-1.71359 3.5263769,5.9757079 84.137676 0 0 0.480074,-1.653646 3.5263769,5.9757079 84.137676 0 0 -1.538924,-2.064475 3.5263769,5.9757079 33.336369 0 0 -1.121379,-2.317686 3.5263769,5.9757079 33.336369 0 0 -1.688269,-0.336415 3.5263769,5.9757079 0 0 0 -1.595768,-0.646989 z" />
      <path
         sodipodi:nodetypes="cccc"
         id="path878"
         d="m 20.780208,39.839621 1.14709,-0.05882 c -0.08751,-0.647288 0.167543,-1.679949 -0.485308,-1.691224 -0.302216,0.202445 -0.590507,0.469879 -0.661782,1.750048 z"
         style="fill:#000000;stroke:#000000;stroke-width:0.141436px;stroke-linecap:butt;stroke-linejoin:miter;stroke-opacity:1" />
      <path
         style="fill:#000000;stroke:#000000;stroke-width:0.141436px;stroke-linecap:butt;stroke-linejoin:miter;stroke-opacity:1"
         d="m 23.363108,39.758654 1.14709,-0.05882 c -0.08751,-0.647288 0.167543,-1.679949 -0.485308,-1.691224 -0.302216,0.202445 -0.590507,0.469879 -0.661782,1.750048 z"
         id="path882"
         sodipodi:nodetypes="cccc" />
      <path
         style="fill:#ffe6d5;stroke:#ffccaa;stroke-width:0.264583px;stroke-linecap:butt;stroke-linejoin:miter;stroke-opacity:1"
         d="m 17.171755,36.953518 c -1.123933,0.904427 -2.699594,1.507702 -3.026208,2.943675 -0.17558,1.00091 -0.387741,2.0384 -0.137555,2.613544 0.393737,0.533639 0.783577,1.078972 1.67817,0.110043 0.575818,-0.351342 0.396679,-1.835119 0.57773,-2.77861 z"
         id="path884"
         sodipodi:nodetypes="cccccc" />
      <path
         sodipodi:nodetypes="cccccc"
         id="path886"
         d="m 27.960224,36.36884 c 1.123933,0.904427 2.699594,1.507702 3.026208,2.943675 0.17558,1.00091 0.387741,2.0384 0.137555,2.613544 -0.393737,0.533639 -0.783577,1.078972 -1.67817,0.110043 -0.575818,-0.351342 -0.396679,-1.835119 -0.57773,-2.77861 z"
         style="fill:#ffe6d5;stroke:#ffccaa;stroke-width:0.264583px;stroke-linecap:butt;stroke-linejoin:miter;stroke-opacity:1" />
      <path
         style="fill:#000000;stroke:#000000;stroke-width:0.264583px;stroke-linecap:butt;stroke-linejoin:miter;stroke-opacity:1"
         d="m 20.495684,41.238966 1.760703,0.522708 2.22839,-0.330131 -2.008303,1.705682 z"
         id="path888"
         sodipodi:nodetypes="ccccc" />
      <path
         style="fill:none;stroke:#000000;stroke-width:0.264583px;stroke-linecap:butt;stroke-linejoin:miter;stroke-opacity:1"
         d="m 22.421453,43.164736 0.05502,0.825328 c -0.290476,0.490905 -0.728028,0.589605 -1.237995,0.495199 v 0 L 20.38564,43.769977"
         id="path890"
         sodipodi:nodetypes="ccccc" />
      <path
         style="fill:none;stroke:#000000;stroke-width:0.264583px;stroke-linecap:butt;stroke-linejoin:miter;stroke-opacity:1"
         d="m 22.503986,43.962555 c 0.270346,0.417784 0.628478,0.572213 1.045417,0.550219 0.430852,-0.07803 0.827205,-0.173299 0.82533,-0.467687"
         id="path892"
         sodipodi:nodetypes="ccc" />
      <ellipse
         style="fill:#ffd5d5;stroke:none;stroke-width:0.528902;stroke-miterlimit:4;stroke-dasharray:none"
         id="path922"
         cx="18.929317"
         cy="41.057137"
         rx="1.1630918"
         ry="1.0177052" />
      <ellipse
         ry="1.0177052"
         rx="1.1630918"
         cy="40.620979"
         cx="26.402182"
         id="ellipse924"
         style="fill:#ffd5d5;stroke:none;stroke-width:0.528902;stroke-miterlimit:4;stroke-dasharray:none" />
      <ellipse
         style="fill:#ffffff;stroke:none;stroke-width:0.528902;stroke-miterlimit:4;stroke-dasharray:none"
         id="path926"
         cx="21.627731"
         cy="38.600109"
         rx="0.17446376"
         ry="0.27623427" />
      <ellipse
         ry="0.27623427"
         rx="0.17446376"
         cy="38.483799"
         cx="24.215611"
         id="ellipse928"
         style="fill:#ffffff;stroke:none;stroke-width:0.528902;stroke-miterlimit:4;stroke-dasharray:none" />
      <path
         style="fill:#000000;stroke:#000000;stroke-width:0.264583px;stroke-linecap:butt;stroke-linejoin:miter;stroke-opacity:1"
         d="m 17.352392,53.743894 2.483864,0.01156 -0.09242,0.693171 -2.287466,-0.01156 z"
         id="path930" />
      <path
         id="path932"
         d="m 25.279917,53.512837 2.483864,0.01156 -0.09242,0.693171 -2.287466,-0.01156 z"
         style="fill:#000000;stroke:#000000;stroke-width:0.264583px;stroke-linecap:butt;stroke-linejoin:miter;stroke-opacity:1" />
    </g>
  </g>
</svg>
